#!OML:ASF I:\Actors\actors\Patient Classification 1\Patient 1\Session 1\Subject1.ASF
:FULLY-SPECIFIED
:DEGREES
133
root -0.388464 17.5118 7.46427 5.2306 -1.92142 -7.37853
lowerback 1.23133 0.17775 4.60086
upperback -7.6593 0.627103 1.64104
thorax -8.73276 0.0487754 -0.89198
lowerneck -7.97608 -6.59596 -5.35984
upperneck 21.3152 -9.9514 7.13547
head 8.56665 -4.49619 2.27576
rclavicle -4.52235e-015 2.0276e-014
rhumerus -35.245 17.9902 -98.8462
rradius 74.2831
rwrist 21.6572
rhand 23.2195 -53.5094
rfingers 7.12502
rthumb 47.5216 -75.9424
lclavicle -4.52235e-015 2.0276e-014
lhumerus -32.9974 -12.7301 101.896
lradius 73.9084
lwrist 18.163
lhand -25.4121 -2.91342
lfingers 7.12502
lthumb 1.11357 27.0634
rfemur -0.249255 24.1679 25.8447
rtibia 2.93974
rfoot -11.0069 -21.4496
rtoes 0.535925
lfemur 8.48701 -38.5409 -16.7098
ltibia -3.91147
lfoot -14.3752 47.5401
ltoes 7.34177
134
root -0.386044 17.5159 7.46434 5.05024 -1.6416 -7.27196
lowerback 1.24285 0.039533 4.59405
upperback -7.63282 0.439491 1.62582
thorax -8.71974 -0.0429181 -0.888167
lowerneck -8.09508 -6.3578 -5.23336
upperneck 21.9478 -9.65052 6.98502
head 8.76822 -4.34364 2.23402
rclavicle 0 2.74323e-014
rhumerus -33.8981 19.3392 -98.4786
rradius 78.0535
rwrist 23.3212
rhand 23.7612 -53.8986
rfingers 7.12502
rthumb 48.0214 -76.1014
lclavicle 0 2.74323e-014
lhumerus -31.8909 -13.7056 102.004
lradius 73.5977
lwrist 17.1398
lhand -25.7053 -2.64526
lfingers 7.12502
lthumb 0.830357 27.3329
rfemur 0.0651437 24.2361 25.854
rtibia 2.81048
rfoot -10.9955 -21.8401
rtoes 0.51511
lfemur 8.55537 -38.3875 -16.8186
ltibia -3.92003
lfoot -13.8037 47.1541
ltoes 6.66321
135
root -0.379753 17.5169 7.46067 5.01968 -1.61434 -7.1817
lowerback 1.22579 -0.0344276 4.64696
upperback -7.65224 0.341013 1.60407
thorax -8.73643 -0.0966209 -0.931769
lowerneck -8.16655 -6.10294 -4.9812
upperneck 22.5339 -9.30875 6.68842
head 8.93098 -4.1787 2.12896
rclavicle -1.98785e-015 -3.06128e-014
rhumerus -32.4852 20.6667 -98.0741
rradius 81.9495
rwrist 25.6944
rhand 21.9937 -52.5779
rfingers 7.12502
rthumb 46.3876 -75.5093
lclavicle -1.98785e-015 -3.06128e-014
lhumerus -31.4949 -14.5212 102.037
lradius 74.3185
lwrist 16.0755
lhand -25.9305 -2.29181
lfingers 7.12502
lthumb 0.612876 27.687
rfemur 0.0216065 24.0854 25.7077
rtibia 2.87423
rfoot -11.0127 -21.7487
rtoes 0.461359
lfemur 8.51337 -38.2748 -16.9025
ltibia -3.9027
lfoot -13.663 47.0013
ltoes 6.63828
136
root -0.372606 17.5175 7.45494 5.03123 -1.6067 -7.11963
lowerback 1.2529 -0.0846038 4.7525
upperback -7.67921 0.280786 1.58147
thorax -8.78638 -0.136052 -1.00878
lowerneck -8.2413 -5.86716 -4.62721
upperneck 23.0907 -8.9693 6.23925
head 9.07533 -4.02236 1.95458
rclavicle 1.64494e-014 -3.4191e-014
rhumerus -31.0468 21.9917 -97.6286
rradius 85.8488
rwrist 28.7003
rhand 18.2704 -50.689
rfingers 7.12502
rthumb 42.9205 -74.963
lclavicle 1.64494e-014 -3.4191e-014
lhumerus -31.3879 -15.2876 102.049
lradius 75.4865
lwrist 15.0999
lhand -26.1509 -2.12101
lfingers 7.12502
lthumb 0.400037 27.8584
rfemur -0.097514 23.991 25.5682
rtibia 2.98795
rfoot -11.0405 -21.6563
rtoes 0.355852
lfemur 8.40301 -38.2412 -16.945
ltibia -3.83582
lfoot -13.6181 46.9544
ltoes 6.54447
137
root -0.370303 17.5199 7.44604 4.98918 -1.68189 -7.15358
lowerback 1.40956 -0.0751865 4.91701
upperback -7.66516 0.31149 1.55989
thorax -8.86351 -0.135039 -1.12584
lowerneck -8.36176 -5.65671 -4.30987
upperneck 23.5778 -8.69004 5.95511
head 9.22129 -3.88115 1.8335
rclavicle -8.99501e-015 1.17283e-014
rhumerus -29.4605 22.8872 -96.9851
rradius 89.807
rwrist 29.3348
rhand 13.9941 -50.2668
rfingers 7.12502
rthumb 38.9039 -75.8142
lclavicle -8.99501e-015 1.17283e-014
lhumerus -31.0928 -16.2134 101.997
lradius 76.3377
lwrist 14.3161
lhand -26.4052 -1.92498
lfingers 7.12502
lthumb 0.154417 28.0547
rfemur -0.161226 24.03 25.5961
rtibia 3.11985
rfoot -10.9956 -21.6221
rtoes 0.0149653
lfemur 8.43887 -38.2276 -16.9311
ltibia -3.83471
lfoot -13.7233 47.0016
ltoes 6.7
138
root -0.372046 17.5226 7.43802 4.91483 -1.92441 -7.27318
lowerback 1.59649 0.00643984 5.08755
upperback -7.61407 0.442687 1.56471
thorax -8.91166 -0.0830568 -1.22816
lowerneck -8.57347 -5.46631 -3.95187
upperneck 24.0867 -8.43864 5.64776
head 9.39381 -3.74931 1.69149
rclavicle 2.33572e-015 1.63003e-014
rhumerus -28.0308 23.7466 -96.4513
rradius 93.302
rwrist 29.8836
rhand 6.85116 -48.2496
rfingers 7.12502
rthumb 32.134 -75.4285
lclavicle 2.33572e-015 1.63003e-014
lhumerus -30.6173 -17.1616 101.921
lradius 76.8077
lwrist 13.732
lhand -26.9695 -1.88064
lfingers 7.12502
lthumb -0.390653 28.0987
rfemur -0.182484 24.1395 25.7629
rtibia 3.25796
rfoot -10.9305 -21.5066
rtoes -0.359993
lfemur 8.67354 -38.2069 -16.9105
ltibia -3.94492
lfoot -13.8831 47.1913
ltoes 6.99826
139
root -0.369774 17.5248 7.43151 4.86731 -2.1235 -7.36132
lowerback 1.77703 0.0821457 5.26632
upperback -7.57765 0.566891 1.56294
thorax -8.97206 -0.035925 -1.34178
lowerneck -8.84753 -5.29873 -3.50048
upperneck 24.6167 -8.18728 5.1478
head 9.57592 -3.62781 1.46539
rclavicle -8.69683e-015 3.65764e-014
rhumerus -26.6899 24.3123 -95.7937
rradius 96.6237
rwrist 30.5303
rhand -2.8794 -46.8487
rfingers 7.12502
rthumb 22.8297 -75.5175
lclavicle -8.69683e-015 3.65764e-014
lhumerus -30.2039 -17.9894 101.894
lradius 77.2373
lwrist 13.3905
lhand -27.9012 -2.07014
lfingers 7.12502
lthumb -1.29051 27.9057
rfemur -0.175015 24.2567 25.8834
rtibia 3.30801
rfoot -10.9337 -21.4317
rtoes -0.28226
lfemur 8.83455 -38.1468 -16.9039
ltibia -4.03081
lfoot -13.8639 47.3262
ltoes 6.9643
